# Blender 3.6.4
# www.blender.org
mtllib garra2.mtl
o Garra
v 15.231591 1.003812 11.064324
v 15.165376 0.965163 11.076698
v 15.119814 0.869686 11.160412
v 15.070122 0.965153 11.241737
v 15.092579 1.003812 11.305264
v 15.191758 1.137765 11.201991
v 15.215809 1.148653 11.105815
v 15.120558 1.148653 11.270844
v 15.565157 0.210546 11.329338
v 15.465024 0.365750 11.289150
v 15.655086 -0.056457 11.469402
v 15.491288 0.138841 11.374896
v 15.403918 0.365750 11.394997
v 15.488801 0.210536 11.461652
v 15.562956 0.282060 11.416253
v 15.522274 0.480319 11.322224
v 15.461168 0.480319 11.428068
v 11.692515 1.003812 13.003832
v 11.636990 0.965153 12.965775
v 11.545547 0.869678 12.992755
v 11.452911 0.965153 13.015101
v 11.423783 1.003812 13.075841
v 11.567047 1.137765 13.073107
v 11.652053 1.148653 13.022015
v 11.467976 1.148653 13.071332
v 11.740975 0.210536 13.427104
v 11.698568 0.365751 13.327858
v 11.705438 -0.056457 13.589633
v 11.656548 0.138842 13.407102
v 11.580584 0.365751 13.359501
v 11.593440 0.210536 13.466661
v 11.677924 0.282050 13.486967
v 11.715772 0.480319 13.391760
v 11.597683 0.480319 13.423395
v 14.852698 0.869685 7.175072
v 14.875099 0.965163 7.267733
v 14.935804 1.003812 7.296818
v 14.863796 1.003812 7.028099
v 14.825738 0.965153 7.083665
v 14.931312 1.148653 7.252662
v 14.933125 1.137765 7.153551
v 14.881851 1.148653 7.068566
v 15.219476 0.365750 7.140075
v 15.326640 0.210546 7.127182
v 15.267069 0.138841 7.064048
v 15.449593 -0.056457 7.015140
v 15.187795 0.365750 7.022010
v 15.287144 0.210536 6.979613
v 15.283457 0.480318 7.122971
v 15.346944 0.282059 7.042646
v 15.251780 0.480318 7.004895
v 7.302076 0.869685 6.646865
v 7.333324 0.965153 6.554885
v 7.329415 1.003812 6.502020
v 7.190298 1.003812 6.742953
v 7.238073 0.965153 6.719913
v 7.282891 1.148653 6.525768
v 7.230029 1.137765 6.605267
v 7.187638 1.148653 6.690806
v 7.221247 0.365750 6.529618
v 7.210236 0.210536 6.505620
v 7.207746 0.138841 6.592375
v 7.191793 -0.056457 6.583200
v 7.160140 0.365750 6.635463
v 7.133775 0.210536 6.637923
v 7.163893 0.480318 6.496528
v 7.136078 0.282059 6.551028
v 7.102785 0.480318 6.602383
vn -0.1960 -0.4001 -0.8953
vn -0.1714 -0.3874 -0.9058
vn 0.5624 -0.0318 -0.8262
vn 0.6026 -0.1667 -0.7804
vn -0.6883 -0.6071 -0.3972
vn 0.3768 -0.9004 0.2173
vn -0.7364 -0.5263 -0.4251
vn -0.8733 -0.4000 0.2782
vn -0.8701 -0.3872 0.3049
vn -0.3742 -0.1667 0.9122
vn -0.4342 -0.0317 0.9002
vn 0.9298 0.3610 -0.0712
vn 0.8986 0.4215 0.1219
vn 0.7664 0.4658 0.4424
vn 0.8321 0.2776 0.4802
vn 0.4033 0.3610 0.8408
vn 0.5550 0.4216 0.7171
vn 0.4944 -0.4001 -0.7716
vn 0.5194 -0.3874 -0.7617
vn 0.9819 -0.0320 -0.1869
vn 0.9780 -0.1668 -0.1254
vn -0.2058 -0.6069 -0.7677
vn 0.1124 -0.9005 0.4200
vn -0.2203 -0.5263 -0.8213
vn -0.8139 -0.4002 -0.4212
vn -0.8304 -0.3875 -0.4003
vn -0.9097 -0.1666 0.3803
vn -0.9437 -0.0319 0.3294
vn 0.7081 0.3608 0.6070
vn 0.5495 0.4214 0.7214
vn 0.2290 0.4658 0.8548
vn 0.2485 0.2775 0.9280
vn -0.3094 0.3610 0.8798
vn -0.1151 0.4214 0.8995
vn -0.4211 -0.4001 0.8140
vn 0.3805 -0.1668 0.9096
vn 0.3291 -0.0319 0.9438
vn -0.4001 -0.3874 0.8306
vn -0.7677 -0.6070 0.2055
vn -0.8213 -0.5263 0.2201
vn 0.4200 -0.9005 -0.1128
vn -0.7715 -0.4000 -0.4947
vn -0.7616 -0.3873 -0.5197
vn -0.1251 -0.1666 -0.9781
vn -0.1864 -0.0317 -0.9820
vn 0.8797 0.3609 0.3097
vn 0.9280 0.2774 -0.2487
vn 0.8546 0.4658 -0.2295
vn 0.8995 0.4215 0.1152
vn 0.6069 0.3609 -0.7082
vn 0.7212 0.4214 -0.5498
vn 0.9882 -0.1526 0.0122
vn 0.3911 -0.2301 -0.8911
vn 0.3004 -0.0333 -0.9532
vn 0.9863 -0.1610 0.0344
vn 0.8619 -0.0967 0.4977
vn 0.8523 -0.1774 0.4921
vn 0.0788 -0.9958 0.0460
vn 0.5043 -0.1526 0.8499
vn 0.5224 -0.1611 0.8373
vn -0.5766 -0.2301 0.7839
vn -0.6754 -0.0332 0.7367
vn -0.5974 0.0854 -0.7974
vn -0.8582 -0.1327 -0.4958
vn -0.8562 0.1508 -0.4942
vn -0.8035 0.1332 -0.5802
vn -0.9893 0.0854 -0.1187
vn -0.9042 0.1332 -0.4058
vt 0.163292 0.846219
vt 0.163606 0.841514
vt 0.164101 0.841618
vt 0.163399 0.847484
vt 0.162656 0.847731
vt 0.162585 0.850417
vt 0.162814 0.841952
vt 0.162100 0.846186
vt 0.162033 0.841468
vt 0.161927 0.847444
vt 0.161515 0.841531
vt 0.167777 0.733056
vt 0.167208 0.728863
vt 0.167772 0.728968
vt 0.168218 0.734187
vt 0.167628 0.734541
vt 0.168452 0.736945
vt 0.166749 0.729544
vt 0.168464 0.733005
vt 0.168321 0.728802
vt 0.168903 0.729393
vt 0.168861 0.734440
vt 0.129378 0.821287
vt 0.133781 0.819591
vt 0.133896 0.820085
vt 0.128274 0.821916
vt 0.127739 0.821346
vt 0.125273 0.822412
vt 0.133047 0.819059
vt 0.128906 0.820192
vt 0.133153 0.818146
vt 0.127694 0.820563
vt 0.132877 0.817704
vt 0.198662 0.707359
vt 0.194442 0.706971
vt 0.194676 0.706448
vt 0.199863 0.707182
vt 0.200079 0.707837
vt 0.202604 0.707569
vt 0.195001 0.707573
vt 0.198766 0.706678
vt 0.194642 0.705876
vt 0.195350 0.705444
vt 0.200251 0.706611
vt 0.196014 0.823813
vt 0.197000 0.824599
vt 0.191784 0.821944
vt 0.191977 0.821474
vt 0.197634 0.824176
vt 0.192778 0.821031
vt 0.199926 0.825721
vt 0.196686 0.822840
vt 0.192829 0.820109
vt 0.197792 0.823410
vt 0.193185 0.819730
vt 0.139616 0.712055
vt 0.138465 0.712179
vt 0.142743 0.710092
vt 0.142986 0.709923
vt 0.138456 0.712852
vt 0.142980 0.711499
vt 0.135942 0.713548
vt 0.139312 0.711492
vt 0.137925 0.711643
vt 0.142254 0.709628
vt 0.165911 0.769527
vt 0.166190 0.768570
vt 0.165852 0.773483
vt 0.165477 0.773333
vt 0.165678 0.767977
vt 0.164757 0.772819
vt 0.166249 0.765628
vt 0.164840 0.769277
vt 0.163904 0.773164
vt 0.164950 0.768271
vt 0.163471 0.773182
vt 0.166779 0.668283
vt 0.167266 0.667265
vt 0.166625 0.671878
vt 0.166098 0.671895
vt 0.166788 0.666745
vt 0.165692 0.671187
vt 0.167868 0.664532
vt 0.167408 0.668347
vt 0.167932 0.666979
vt 0.167681 0.671334
vt 0.167162 0.671974
s 1
usemtl wire_224086086
f 10/1/1 2/2/2 1/3/3 9/4/4
f 12/5/5 10/1/1 9/4/4 11/6/6
f 10/1/1 12/5/5 3/7/7 2/2/2
f 13/8/8 4/9/9 3/7/7 12/5/5
f 14/10/10 13/8/8 12/5/5 11/6/6
f 13/8/8 14/10/10 5/11/11 4/9/9
f 16/12/12 7/13/13 6/14/14 15/15/15
f 9/16/4 16/12/12 15/15/15 11/17/6
f 16/12/12 9/16/4 1/18/3 7/13/13
f 17/19/16 8/20/17 5/21/11 14/22/10
f 15/15/15 17/19/16 14/22/10 11/17/6
f 17/19/16 15/15/15 6/14/14 8/20/17
f 27/23/18 19/24/19 18/25/20 26/26/21
f 29/27/22 27/23/18 26/26/21 28/28/23
f 27/23/18 29/27/22 20/29/24 19/24/19
f 30/30/25 21/31/26 20/29/24 29/27/22
f 31/32/27 30/30/25 29/27/22 28/28/23
f 30/30/25 31/32/27 22/33/28 21/31/26
f 33/34/29 24/35/30 23/36/31 32/37/32
f 26/38/21 33/34/29 32/37/32 28/39/23
f 33/34/29 26/38/21 18/40/20 24/35/30
f 34/41/33 25/42/34 22/43/28 31/44/27
f 32/37/32 34/41/33 31/44/27 28/39/23
f 34/41/33 32/37/32 23/36/31 25/42/34
f 43/45/35 44/46/36 37/47/37 36/48/38
f 45/49/39 43/45/35 36/48/38 35/50/40
f 43/45/35 45/49/39 46/51/41 44/46/36
f 47/52/42 45/49/39 35/50/40 39/53/43
f 48/54/44 47/52/42 39/53/43 38/55/45
f 47/52/42 48/54/44 46/51/41 45/49/39
f 49/56/46 50/57/47 41/58/48 40/59/49
f 44/60/36 49/56/46 40/59/49 37/61/37
f 49/56/46 44/60/36 46/62/41 50/57/47
f 51/63/50 48/64/44 38/65/45 42/59/51
f 50/57/47 51/63/50 42/59/51 41/58/48
f 51/63/50 50/57/47 46/62/41 48/64/44
f 60/66/52 61/67/53 54/68/54 53/69/55
f 62/70/56 60/66/52 53/69/55 52/71/57
f 60/66/52 62/70/56 63/72/58 61/67/53
f 64/73/59 62/70/56 52/71/57 56/74/60
f 65/75/61 64/73/59 56/74/60 55/76/62
f 64/73/59 65/75/61 63/72/58 62/70/56
f 66/77/63 67/78/64 58/79/65 57/80/66
f 61/81/53 66/77/63 57/80/66 54/82/54
f 66/77/63 61/81/53 63/83/58 67/78/64
f 68/84/67 65/85/61 55/86/62 59/87/68
f 67/78/64 68/84/67 59/87/68 58/79/65
f 68/84/67 67/78/64 63/83/58 65/85/61
